<svg width="65" height="72" viewBox="0 0 65 72" fill="none" xmlns="http://www.w3.org/2000/svg">
<path d="M5.41667 3.6C4.41949 3.6 3.61111 4.40589 3.61111 5.4V66.6C3.61111 67.5941 4.41949 68.4 5.41667 68.4H41.5278C42.525 68.4 43.3333 67.5941 43.3333 66.6V59.4C43.3333 58.4059 44.1417 57.6 45.1389 57.6C46.1361 57.6 46.9444 58.4059 46.9444 59.4V66.6C46.9444 69.5823 44.5193 72 41.5278 72H5.41667C2.42513 72 0 69.5823 0 66.6V5.4C0 2.41766 2.42512 0 5.41667 0H41.5278C44.5193 0 46.9444 2.41766 46.9444 5.4V9C46.9444 9.99411 46.1361 10.8 45.1389 10.8C44.1417 10.8 43.3333 9.99411 43.3333 9V5.4C43.3333 4.40589 42.525 3.6 41.5278 3.6H5.41667Z" fill="#E9D8A6"/>
<path d="M36.1111 37.8C36.1111 36.8059 36.9195 36 37.9167 36H45.1389C46.1361 36 46.9444 36.8059 46.9444 37.8C46.9444 38.7941 46.1361 39.6 45.1389 39.6H37.9167C36.9195 39.6 36.1111 38.7941 36.1111 37.8Z" fill="#E9D8A6"/>
<path d="M37.9167 43.2C36.9195 43.2 36.1111 44.0059 36.1111 45C36.1111 45.9941 36.9195 46.8 37.9167 46.8H52.3611C53.3583 46.8 54.1667 45.9941 54.1667 45C54.1667 44.0059 53.3583 43.2 52.3611 43.2H37.9167Z" fill="#E9D8A6"/>
<path fill-rule="evenodd" clip-rule="evenodd" d="M39.7222 21.6C37.7279 21.6 36.1111 23.2118 36.1111 25.2V28.8C36.1111 30.7882 37.7279 32.4 39.7222 32.4H50.5556C52.5499 32.4 54.1667 30.7882 54.1667 28.8V25.2C54.1667 23.2118 52.5499 21.6 50.5556 21.6H39.7222ZM39.7222 28.8V25.2H50.5556V28.8H39.7222Z" fill="#E9D8A6"/>
<path fill-rule="evenodd" clip-rule="evenodd" d="M28.8889 19.8C28.8889 16.8177 31.314 14.4 34.3056 14.4H59.5833C62.5749 14.4 65 16.8177 65 19.8V48.6C65 51.5823 62.5749 54 59.5833 54H34.3056C31.314 54 28.8889 51.5823 28.8889 48.6V19.8ZM34.3056 18C33.3084 18 32.5 18.8059 32.5 19.8V48.6C32.5 49.5941 33.3084 50.4 34.3056 50.4H59.5833C60.5805 50.4 61.3889 49.5941 61.3889 48.6V19.8C61.3889 18.8059 60.5805 18 59.5833 18H34.3056Z" fill="#E9D8A6"/>
<path d="M23.4722 64.8C25.4666 64.8 27.0833 63.1882 27.0833 61.2C27.0833 59.2118 25.4665 57.6 23.4722 57.6C21.4778 57.6 19.8611 59.2118 19.8611 61.2C19.8611 63.1882 21.4779 64.8 23.4722 64.8Z" fill="#E9D8A6"/>
<path d="M12.6389 9C12.6389 8.00589 13.4473 7.2 14.4444 7.2H32.5C33.4972 7.2 34.3056 8.00589 34.3056 9C34.3056 9.99411 33.4972 10.8 32.5 10.8H14.4444C13.4473 10.8 12.6389 9.99411 12.6389 9Z" fill="#E9D8A6"/>
</svg>
