<svg width="65" height="72" viewBox="0 0 65 72" fill="none" xmlns="http://www.w3.org/2000/svg">
<path fill-rule="evenodd" clip-rule="evenodd" d="M29.6779 0.574446C31.2078 -0.191482 33.0085 -0.191482 34.5383 0.574445L62.2136 14.4302C64.8838 15.767 64.8838 19.5824 62.2136 20.9192L34.5383 34.775C33.0085 35.5409 31.2078 35.5409 29.6779 34.775L2.0026 20.9192C-0.667533 19.5824 -0.667537 15.767 2.0026 14.4302L29.6779 0.574446ZM32.9182 3.81897C32.4082 3.56366 31.808 3.56366 31.298 3.81897L3.62274 17.6747L31.298 31.5305C31.808 31.7858 32.4082 31.7858 32.9182 31.5305L60.5935 17.6747L32.9182 3.81897Z" fill="#E9D8A6"/>
<path d="M2.01922 31.1166C2.46661 30.2206 3.55465 29.8575 4.44943 30.3055L31.298 43.7473C31.808 44.0026 32.4082 44.0026 32.9182 43.7473L59.7668 30.3055C60.6616 29.8575 61.7496 30.2206 62.197 31.1166C62.6444 32.0125 62.2817 33.102 61.3869 33.55L34.5383 46.9918C33.0085 47.7578 31.2078 47.7578 29.6779 46.9918L2.82929 33.55C1.93451 33.102 1.57183 32.0125 2.01922 31.1166Z" fill="#E9D8A6"/>
<path d="M2.01922 43.3334C2.46661 42.4375 3.55465 42.0743 4.44943 42.5223L31.298 55.9642C31.808 56.2195 32.4082 56.2195 32.9182 55.9642L59.7668 42.5223C60.6616 42.0743 61.7496 42.4375 62.197 43.3334C62.6444 44.2294 62.2817 45.3189 61.3869 45.7668L34.5383 59.2087C33.0085 59.9746 31.2078 59.9746 29.6779 59.2087L2.82929 45.7668C1.93451 45.3189 1.57183 44.2294 2.01922 43.3334Z" fill="#E9D8A6"/>
<path d="M2.01922 55.5503C2.46661 54.6543 3.55465 54.2912 4.44943 54.7392L31.298 68.181C31.808 68.4363 32.4082 68.4363 32.9182 68.181L59.7668 54.7392C60.6616 54.2912 61.7496 54.6543 62.197 55.5503C62.6444 56.4462 62.2817 57.5357 61.3869 57.9837L34.5383 71.4256C33.0085 72.1915 31.2078 72.1915 29.6779 71.4256L2.82929 57.9837C1.93451 57.5357 1.57183 56.4462 2.01922 55.5503Z" fill="#E9D8A6"/>
</svg>
