<svg width="72" height="72" viewBox="0 0 72 72" fill="none" xmlns="http://www.w3.org/2000/svg">
<path fill-rule="evenodd" clip-rule="evenodd" d="M7.2 9.72C7.2 8.32825 8.32824 7.2 9.72 7.2H29.88C31.2718 7.2 32.4 8.32824 32.4 9.72V37.08C32.4 38.4718 31.2718 39.6 29.88 39.6H9.72C8.32825 39.6 7.2 38.4718 7.2 37.08V9.72ZM10.8 10.8V36H28.8V10.8H10.8Z" fill="#E9D8A6"/>
<path d="M36.5 19.8C36.5 18.8059 37.3059 18 38.3 18H56.3C57.2941 18 58.1 18.8059 58.1 19.8C58.1 20.7941 57.2941 21.6 56.3 21.6H38.3C37.3059 21.6 36.5 20.7941 36.5 19.8Z" fill="#E9D8A6"/>
<path d="M36.5 27C36.5 26.0059 37.3059 25.2 38.3 25.2H61.7C62.6941 25.2 63.5 26.0059 63.5 27C63.5 27.9941 62.6941 28.8 61.7 28.8H38.3C37.3059 28.8 36.5 27.9941 36.5 27Z" fill="#E9D8A6"/>
<path d="M36.5 34.2C36.5 33.2059 37.3059 32.4 38.3 32.4H52.7C53.6941 32.4 54.5 33.2059 54.5 34.2C54.5 35.1941 53.6941 36 52.7 36H38.3C37.3059 36 36.5 35.1941 36.5 34.2Z" fill="#E9D8A6"/>
<path d="M23.4 52.2C23.4 51.2059 24.2059 50.4 25.2 50.4H46.8C47.7941 50.4 48.6 51.2059 48.6 52.2C48.6 53.1941 47.7941 54 46.8 54H25.2C24.2059 54 23.4 53.1941 23.4 52.2Z" fill="#E9D8A6"/>
<path fill-rule="evenodd" clip-rule="evenodd" d="M0 5.4C0 2.41766 2.41766 0 5.4 0H66.6C69.5823 0 72 2.41766 72 5.4V55.8C72 58.7823 69.5823 61.2 66.6 61.2H41.4V68.4H54C54.9941 68.4 55.8 69.2059 55.8 70.2C55.8 71.1941 54.9941 72 54 72H18C17.0059 72 16.2 71.1941 16.2 70.2C16.2 69.2059 17.0059 68.4 18 68.4H30.6V61.2H5.4C2.41766 61.2 0 58.7823 0 55.8V5.4ZM34.2 61.2V68.4H37.8V61.2H34.2ZM5.4 3.6C4.40589 3.6 3.6 4.40589 3.6 5.4V43.2H68.4V5.4C68.4 4.40589 67.5941 3.6 66.6 3.6H5.4ZM68.4 46.8H3.6V55.8C3.6 56.7941 4.40589 57.6 5.4 57.6H66.6C67.5941 57.6 68.4 56.7941 68.4 55.8V46.8Z" fill="#E9D8A6"/>
<circle cx="38.5" cy="10.5" r="2.5" fill="#E9D8A6"/>
<circle cx="47.5" cy="10.5" r="2.5" fill="#E9D8A6"/>
<circle cx="56.5" cy="10.5" r="2.5" fill="#E9D8A6"/>
</svg>
