<svg width="1139" height="1139" viewBox="0 0 1139 1139" fill="none" xmlns="http://www.w3.org/2000/svg">
<g filter="url(#filter0_d_1_3)">
<g clip-path="url(#clip0_1_3)">
<rect x="57.5" y="57.5" width="1024" height="1024" fill="white"/>
<g filter="url(#filter1_f_1_3)">
<path d="M423.312 488.516C421.327 505 425.143 538.884 456.279 542.547C487.416 546.21 650.858 754.027 728.687 857.478L735.663 860.957C733.544 857.682 730.577 845.871 735.663 824.832C738.36 812.791 747.165 786.049 760.806 775.413C776.797 762.601 811.612 732.468 822.941 714.434C823.849 712.665 826.674 709.658 830.716 711.781C834.48 713.514 843.555 714.545 849.736 704.797C849.984 703.212 851.638 698.793 856.275 693.8L867.865 683.25L874.552 676.266L880.496 667.796L886.291 658.88L900.854 640.454L908.581 628.269C911.454 623.613 918.894 609.961 925.67 592.605C932.446 575.249 593.588 515.981 423.312 488.516Z" fill="#464646"/>
</g>
<path d="M168.5 842L133 846.5L94 851L81 854.5C72.6 856.1 54.1667 864.833 46 869V1089.5H1087.5V1064.5L1067.5 1045.5L1036.5 1022L1008.5 1002.5C1003.7 996.9 981.5 985.5 971 980.5L902.5 951.5L837 916L816.5 903.5L803 891.5C802.167 891.5 799.5 890.7 795.5 887.5C791.5 884.3 788.167 883.5 787 883.5L768.5 871C759.3 864.6 741 857.667 733 855L728.5 851C730.1 824.2 735.167 800.167 737.5 791.5C743.5 766.7 766 742.833 776.5 734L788.5 723.5L802.5 710L820 690C827 696.5 830 695.5 835.5 696.5C841 697.5 848.5 692.5 850 688C851.2 684.4 857.167 679.5 860 677.5C868.8 673.5 892.667 642.167 903.5 627C909.1 621.8 921.167 598.833 926.5 588C933.5 586.5 976 532.5 988.5 486.5C998.5 449.7 986.333 410.5 979 395.5C996.6 291.1 940.333 240 910 227.5C892.8 206.3 859.167 188 844.5 181.5C822.1 171.5 779.167 162.333 760.5 159C743.3 155.8 722 156.667 713.5 157.5L663.5 163.5C621.5 170.3 583 187.667 569 195.5C542 210.5 521.5 235 518 239.5C515.2 243.1 509.833 251.333 507.5 255L512.5 249.5V256C507.3 260.8 501.333 274 499 280L503.5 274.5L495.5 293.5L477.5 333.5C464.5 333.5 462 335.5 452 340.5C444 344.5 434 363.833 430 373C428 377.833 422.8 390.9 418 404.5C413.2 418.1 413 432.5 413.5 438C416.333 452.167 422.4 482.6 424 491C426 501.5 439 503.5 446 506.5C451.6 508.9 455.333 505.5 456.5 503.5L451.5 542.5C451 548.833 449.6 563.8 448 573C446.4 582.2 447.333 597.833 448 604.5L443.5 625L431.5 680L429 694.5L424.5 716L409.5 756C407.833 761 403.3 773.6 398.5 784C393.7 794.4 387.167 798 384.5 798.5L351 805H315C309 805 298.833 809.333 294.5 811.5L271.5 821H261C257 821 247.333 826.333 243 829L224 834.5H215.5L178 842H168.5Z" fill="#F5CFAB" stroke="black" stroke-width="5"/>
<path fill-rule="evenodd" clip-rule="evenodd" d="M259.643 859.572L295.223 813.871L329.367 805.666H350.013L387.069 797.725L398.715 785.285L413.008 745.847L425.448 713.026L434.977 664.588L446.888 609.269V576.448L450.594 545.48L456.417 505.512L459.762 454.885L499.855 391.274L537.625 315.735C547.662 278.386 586.866 204.206 663.386 206.284C739.907 208.362 843.859 244.378 886.271 262.126L956.072 369.914V480.051L915.814 559.649L839.823 676.203L819.668 689.007L810.094 701.378L801.778 710.215L790.863 721.556L778.389 734.124L765.654 745.559L749.541 765.31L742.005 779.344L734.728 799.875L732.649 814.169L730.57 839.897C729.357 843.102 727.139 849.877 727.971 851.332C728.803 852.787 732.822 855.23 734.728 856.27L752.14 861.468L774.75 886.936L778.389 957.903L659.072 1028.54L355.345 974.572L241.049 892.024L259.643 859.572ZM510.689 614.247C493.391 570.683 532.311 489.854 553.933 454.885C585.679 428.365 608.606 460.613 616.101 480.051L641.221 466.897C668.769 458.569 668.716 483.714 665.246 497.328L658.839 517.348C667.648 518.683 690.391 518.79 710.892 508.539C731.393 498.289 740.789 468.499 742.925 454.885C739.455 448.478 732.034 433.904 730.112 426.856C728.19 419.809 712.761 423.92 705.287 426.856C710.412 411.481 694.075 387.35 685.266 377.206C679.5 388.097 665.246 395.625 658.839 398.027L653.234 383.612C654.515 365.674 642.556 359.054 636.416 357.986L581.961 348.377C574.22 334.763 576.195 309.937 646.026 319.547C715.857 329.157 747.196 349.177 754.136 357.986C753.335 365.194 759.101 380.409 788.571 383.612C825.409 387.616 886.271 426.856 900.685 446.076C912.217 461.452 910.295 513.344 907.893 537.369L886.271 563.796L861.445 607.04L839.823 635.869L773.356 696.731C762.465 700.575 737.319 690.858 726.108 685.52L698.88 721.556C671.973 749.745 639.62 753.055 626.807 751.186C526.705 719.154 532.311 668.702 510.689 614.247ZM472.73 804.161C451.764 808.355 446.523 847.342 446.523 866.311C441.927 879.191 448.438 904.567 452.267 915.646L438.281 929.632C435.618 931.63 424.995 937.424 403.816 944.616C377.343 953.607 379.341 931.63 403.816 926.635C423.397 922.639 427.626 894.667 427.293 881.181C424.962 873.978 421.698 856.801 427.293 845.717C432.887 834.633 422.631 796.477 416.803 778.785L391.329 838.425L350.371 915.646L342.878 912.149L266.456 898.663L427.293 981.579L647.07 1009.05L748.923 936.145C746.977 931.153 731.511 920.51 685.215 917.87C638.918 915.23 648.496 882.398 659.072 866.311C668.124 862.769 681.661 851.42 663.386 834.364C645.112 817.307 611.269 842.655 596.632 857.461C588.68 851.116 568.154 835.075 549.676 821.673C531.198 808.271 514.396 804.415 508.304 804.161C487.999 837.464 508.473 859.471 521.249 866.311C502.974 859.381 490.773 844.833 486.957 838.425C485.718 844.72 486.441 855.146 486.957 859.572C475.576 849.389 472.73 818.389 472.73 804.161Z" fill="#F0C19B"/>
<path d="M766.438 449.119C757.721 448.856 740.089 458.13 739.299 497.328C738.51 536.527 752.128 557.973 759.037 563.796C756.569 551.25 753.115 524.396 759.037 517.348C776.471 536.383 817.854 573.07 843.908 567.544L870.553 559.649C867.638 552.741 859.609 537.938 850.816 533.99C839.823 529.056 790.123 515.225 778.281 491.061C775.766 488.26 774.303 481.083 788.571 474.778L801.472 454.885C793.931 449.895 789.354 447.254 766.438 449.119Z" fill="#F0C19B"/>
<path d="M856.243 466.897C863.316 471.333 877.856 481.291 879.435 485.633C881.014 489.976 868.1 502.713 861.445 508.539C862.672 499.598 863.349 478.751 856.243 466.897Z" fill="#F0C19B"/>
<path d="M645.751 536.256C649.432 544.846 655.867 561.551 652.163 559.649L652.141 559.638C647.472 557.241 627.914 547.198 609.776 555.49C595.243 562.135 580.45 571.082 574.869 574.725C580.212 595.502 594.674 639.979 609.776 651.662C628.654 666.266 644.683 688.389 680.658 685.52C687.069 686.281 700.605 688.697 703.454 692.268L726.108 680.869C734.466 673.627 750.4 652.16 747.266 624.235C740.26 612.718 721.691 588.189 703.454 582.205L691.344 592.89C685.763 590.478 676.455 583.468 683.864 574.725C675.534 572.629 662.875 566.68 678.877 559.649C694.879 552.618 681.27 551.572 672.466 551.928L645.751 536.256Z" fill="#F0C19B"/>
<path d="M652.163 559.649C655.867 561.551 649.432 544.846 645.751 536.256L672.466 551.928C681.27 551.572 694.879 552.618 678.877 559.649C662.875 566.68 675.534 572.629 683.864 574.725C676.455 583.468 685.763 590.478 691.344 592.89L703.454 582.205C721.691 588.189 740.26 612.718 747.266 624.235C750.4 652.16 734.466 673.627 726.108 680.869L703.454 692.268C700.605 688.697 687.069 686.281 680.658 685.52C644.683 688.389 628.654 666.266 609.776 651.662C594.674 639.979 580.212 595.502 574.869 574.725C580.45 571.082 595.243 562.135 609.776 555.49C627.914 547.198 647.472 557.241 652.141 559.638M652.163 559.649L652.141 559.638M652.163 559.649C652.156 559.645 652.148 559.642 652.141 559.638M553.933 454.885C532.311 489.854 493.391 570.683 510.689 614.247C532.311 668.702 526.705 719.154 626.807 751.186C639.62 753.055 671.973 749.745 698.88 721.556L726.108 685.52C737.319 690.858 762.465 700.575 773.356 696.731L839.823 635.869L861.445 607.04L886.271 563.796L907.893 537.369C910.295 513.344 912.217 461.452 900.685 446.076C886.271 426.856 825.409 387.616 788.571 383.612C759.101 380.409 753.335 365.194 754.136 357.986C747.196 349.177 715.857 329.157 646.026 319.547C576.195 309.937 574.22 334.763 581.961 348.377L636.416 357.986C642.556 359.054 654.515 365.674 653.234 383.612L658.839 398.027C665.246 395.625 679.5 388.097 685.266 377.206C694.075 387.35 710.412 411.481 705.287 426.856C712.761 423.92 728.19 419.809 730.112 426.856C732.034 433.904 739.455 448.478 742.925 454.885C740.789 468.499 731.393 498.289 710.892 508.539C690.391 518.79 667.648 518.683 658.839 517.348L665.246 497.328C668.716 483.714 668.769 458.569 641.221 466.897L616.101 480.051C608.606 460.613 585.679 428.365 553.933 454.885ZM766.438 449.119C757.721 448.856 740.089 458.13 739.299 497.328C738.51 536.527 752.128 557.973 759.037 563.796C756.569 551.25 753.115 524.396 759.037 517.348C776.471 536.383 817.854 573.07 843.908 567.544L870.553 559.649C867.638 552.741 859.609 537.938 850.816 533.99C839.823 529.056 790.123 515.225 778.281 491.061C775.766 488.26 774.303 481.083 788.571 474.778L801.472 454.885C793.931 449.895 789.354 447.254 766.438 449.119ZM856.243 466.897C863.316 471.333 877.856 481.291 879.435 485.633C881.014 489.976 868.1 502.713 861.445 508.539C862.672 499.598 863.349 478.751 856.243 466.897ZM446.523 866.311C446.523 847.342 451.764 808.355 472.73 804.161C472.73 818.389 475.576 849.389 486.957 859.572C486.441 855.146 485.718 844.72 486.957 838.425C490.773 844.833 502.974 859.381 521.249 866.311C508.473 859.471 487.999 837.464 508.304 804.161C514.396 804.415 531.198 808.271 549.676 821.673C568.154 835.075 588.679 851.116 596.632 857.461C611.269 842.655 645.112 817.307 663.386 834.364C681.661 851.42 668.124 862.769 659.072 866.311C648.496 882.398 638.918 915.23 685.215 917.87C731.511 920.509 746.977 931.153 748.923 936.145L647.07 1009.05L427.293 981.579L266.456 898.663L342.878 912.149L350.371 915.646L391.329 838.425L416.803 778.785C422.631 796.477 432.887 834.633 427.293 845.717C421.698 856.801 424.962 873.978 427.293 881.181C427.626 894.667 423.397 922.639 403.816 926.635C379.341 931.63 377.343 953.607 403.816 944.616C424.995 937.424 435.618 931.63 438.281 929.632L452.267 915.646C448.438 904.567 441.927 879.191 446.523 866.311ZM259.643 859.572L295.223 813.871L329.367 805.666H350.013L387.069 797.725L398.715 785.285L413.008 745.847L425.448 713.026L434.977 664.588L446.888 609.269V576.448L450.594 545.48L456.417 505.512L459.762 454.885L499.855 391.274L537.625 315.735C547.662 278.386 586.866 204.206 663.386 206.284C739.907 208.362 843.859 244.378 886.271 262.126L956.072 369.914V480.051L915.814 559.649L839.823 676.203L819.668 689.007L810.094 701.378L801.778 710.215L790.863 721.556L778.389 734.124L765.654 745.559L749.541 765.31L742.005 779.344L734.728 799.875L732.649 814.169L730.57 839.897C729.357 843.102 727.139 849.877 727.971 851.332C728.803 852.787 732.822 855.23 734.728 856.27L752.14 861.468L774.75 886.936L778.389 957.903L659.072 1028.54L355.345 974.572L241.049 892.024L259.643 859.572Z" stroke="#F0C19B"/>
<path fill-rule="evenodd" clip-rule="evenodd" d="M291.874 830.313C312.616 819.839 357.919 801.479 373.199 811.83C388.478 822.18 371.761 840.786 361.493 848.795C356.975 862.555 347.816 890.813 347.323 893.77C346.707 897.467 360.877 888.226 373.199 862.966C383.056 842.758 406.057 788.418 416.325 763.774L441.585 687.995L445.898 659.654C457.193 669.717 478.181 701.302 471.774 747.14C477.729 760.694 488.532 792.608 484.096 811.83V825.384C484.096 826.616 494.569 759.462 515.517 759.462C532.274 759.462 546.732 766.033 551.866 769.319L592.529 787.186C595.609 795.811 596.102 814.294 573.43 819.223C550.757 824.152 593.145 821.276 617.172 819.223L672.621 806.901L713.283 791.499L736.695 773.016C730.945 796.838 718.212 844.113 713.283 842.634C708.354 841.156 692.747 852.287 685.559 858.037C688.023 867.894 697.018 888.225 713.283 890.69C729.548 893.154 750.865 891.717 759.49 890.69L768.732 886.377L755.794 862.966L733.214 854.927L728.686 850.884C727.904 846.08 727.716 831.545 733.214 811.83C738.712 792.115 740.626 782.483 740.896 780.132L752.62 759.462L774.856 735.66L795.071 718.183L806.796 704.933L819.329 690.783L827.01 694.826H835.096L948.415 513.64V373.575L859.764 252.687L734.399 223.137L551.866 286.3L455.91 454.166V508.423L451.475 542.172L448.811 578.585V606.116L441.585 635.424L431.048 685.159L423.055 718.183L411.51 747.14L402.184 776.096L391.083 794.397L378.205 800.614L353.782 804.166H332.911L306.268 811.83C298.336 810.598 283.413 810.351 287.173 819.223C290.934 828.095 285.78 827.027 282.733 825.384L291.874 830.313ZM491.489 549.989C485.082 503.166 521.267 426.154 540.16 393.501C548.991 386.108 571.335 368.118 590.064 355.303C608.794 342.488 646.745 331.891 663.38 328.195C656.808 325.525 648.47 313.409 667.692 286.3C686.914 259.192 730.739 255.701 750.249 257.344C762.982 263.916 797.935 279.893 835.886 291.229C883.326 305.399 889.486 329.427 904.889 360.848C917.211 385.985 918.238 417.323 917.211 429.851C917.005 440.735 914.253 472.731 904.889 513.64C895.524 554.548 884.147 577.919 879.629 584.491L851.905 641.787L804.465 699.084L768.732 724.344L728.686 747.14L707.122 755.149L676.934 769.319C670.567 771.783 654.261 776.589 639.968 776.096C625.674 775.603 609.368 764.801 603.002 759.462L580.823 747.14C576.715 744.47 566.406 737.898 558.027 732.969C549.648 728.041 545.911 721.058 545.089 718.183L505.659 675.673L491.489 641.787C483.603 628.973 488.203 575.249 491.489 549.989Z" fill="#E0AB89"/>
<path d="M586.578 390.788C598.939 385.964 628.425 377.764 647.48 383.552C649.389 385.964 652.062 391.33 647.48 393.501C642.897 395.672 655.017 398.627 661.65 399.833C665.469 397.119 673.951 392.054 677.328 393.501C681.548 395.31 699.035 417.018 695.417 428.776C692.523 438.183 689.186 434.907 687.88 432.093C684.664 429.882 676.122 425.399 667.68 425.158C659.238 424.917 654.917 419.631 653.811 417.018C648.585 413.802 634.998 407.37 622.456 407.37C620.848 404.657 615.883 399.049 608.889 398.325C601.894 397.602 591.1 392.999 586.578 390.788Z" fill="#E0AB89"/>
<path d="M715.617 432.093C716.12 439.228 712.783 454.584 695.417 458.925C678.051 463.267 691.799 454.906 700.844 450.182C704.763 446.966 712.904 438.183 714.11 428.776L715.617 432.093Z" fill="#E0AB89"/>
<path d="M732.199 458.925C728.581 464.252 720.2 475.146 715.617 476.111C711.034 477.075 713.708 468.674 715.617 464.352C718.13 461.438 724.963 456.272 732.199 458.925Z" fill="#E0AB89"/>
<path d="M784.659 461.94C775.916 467.87 762.288 485.397 777.725 508.069C775.413 506.662 769.464 501.738 764.158 493.296C759.133 493.497 750.229 503.004 754.811 539.424L757.525 556.609C754.409 548.067 747.877 526.4 746.671 508.069C747.374 494.904 751.254 467.247 761.143 461.94C771.032 456.634 782.75 457.72 787.373 458.925L784.659 461.94Z" fill="#E0AB89"/>
<path d="M709.889 482.743C695.518 486.06 665.268 494.984 659.238 504.149C656.826 506.059 652.364 512.229 653.811 521.636C655.52 517.214 661.891 508.913 673.71 511.084H687.88C695.216 507.466 709.889 496.733 709.889 482.743Z" fill="#E0AB89"/>
<path d="M670.448 536.624L690.123 551.55C689.143 548.355 686.324 541.711 682.886 540.695C679.449 539.678 673.162 537.557 670.448 536.624Z" fill="#E0AB89"/>
<path d="M710.478 564.215C715.378 562.498 726.263 560.094 730.606 564.215C734.948 568.336 733.923 570.757 732.867 571.452L710.478 564.215Z" fill="#E0AB89"/>
<path d="M777.725 484.251C782.046 478.824 796.538 469.598 819.934 476.111C821.341 478.824 823.31 484.251 819.934 484.251C816.557 484.251 824.557 488.271 828.979 490.281C835.611 489.075 851.229 490.16 860.635 504.149C870.042 518.139 870.987 533.495 870.283 539.424C868.575 535.304 861.118 525.978 844.958 521.636C828.798 517.295 821.542 511.787 819.934 509.576C810.386 501.135 788.579 484.251 777.725 484.251Z" fill="#E0AB89"/>
<path d="M580.823 587.114C580.833 587.108 580.843 587.103 580.854 587.097C581.844 586.223 582.951 585.16 584.185 583.88C594.233 573.464 619.447 569.864 630.798 569.366H643.358C646.748 569.366 645.87 567.133 639.968 562.946C634.066 558.76 603.723 558.76 587.255 561.551C574.081 563.784 561.483 581.647 556.831 590.3L573.02 580.81V587.114C572.612 589.971 573.775 593.334 580.823 587.125C580.823 587.121 580.823 587.117 580.823 587.114Z" fill="#E0AB89"/>
<path d="M667.607 596.901C667.264 593.639 661.255 585.408 639.968 578.585C618.701 571.768 591.72 581.409 580.854 587.097L580.823 587.125C580.824 588.849 581.219 593.999 582.789 600.907C584.362 607.829 594.609 627.423 599.536 636.355L630.798 670.966C641.311 676.455 666.357 687.322 682.435 686.875C702.531 686.317 718.441 675.711 723.744 673.199C727.987 671.189 735.374 662.127 738.538 657.847C738.817 660.545 739.208 666.946 738.538 670.966C737.868 674.985 741.794 669.291 743.841 665.942V681.572C746.353 677.944 751.545 669.738 752.215 665.942C752.885 662.146 749.703 647.054 748.028 639.983C746.074 636.076 739.375 625.581 728.21 614.863C717.046 604.145 717.046 609.28 718.441 613.188C720.023 617.189 722.907 624.632 721.791 622.399C720.674 620.166 704.206 609.559 696.112 604.535L667.607 596.901Z" fill="#E0AB89"/>
<path d="M484.096 811.83C488.532 792.608 477.729 760.694 471.774 747.14C478.181 701.302 457.193 669.717 445.898 659.654L441.585 687.995L416.325 763.774C406.057 788.418 383.056 842.758 373.199 862.966C360.877 888.226 346.707 897.467 347.323 893.77C347.816 890.813 356.975 862.555 361.493 848.795C371.761 840.786 388.478 822.18 373.199 811.83C357.919 801.479 312.616 819.839 291.874 830.313L282.733 825.384C285.78 827.027 290.934 828.095 287.173 819.223C283.413 810.351 298.336 810.598 306.268 811.83L332.911 804.166H353.782L378.205 800.614L391.083 794.397L402.184 776.096L411.51 747.14L423.055 718.183L431.048 685.159L441.585 635.424L448.811 606.116V578.585L451.475 542.172L455.91 508.423V454.166L551.866 286.3L734.399 223.137L859.764 252.687L948.415 373.575V513.64L835.096 694.826H827.01L819.329 690.783L806.796 704.933L795.071 718.183L774.856 735.66L752.62 759.462L740.896 780.132C740.626 782.483 738.712 792.115 733.214 811.83C727.716 831.545 727.904 846.08 728.686 850.884L733.214 854.927L755.794 862.966L768.732 886.377L759.49 890.69C750.865 891.717 729.548 893.154 713.283 890.69C697.018 888.225 688.023 867.894 685.559 858.037C692.747 852.287 708.354 841.156 713.283 842.634C718.212 844.113 730.945 796.838 736.695 773.016L713.283 791.499L672.621 806.901L617.172 819.223C593.145 821.276 550.757 824.152 573.43 819.223C596.102 814.294 595.609 795.811 592.529 787.186L551.866 769.319C546.732 766.033 532.274 759.462 515.517 759.462C494.569 759.462 484.096 826.616 484.096 825.384M484.096 811.83C484.096 815.937 484.096 824.398 484.096 825.384M484.096 811.83V825.384M630.798 569.366C619.447 569.864 594.233 573.464 584.185 583.88C582.951 585.16 581.844 586.223 580.854 587.097M630.798 569.366C633.854 569.366 640.646 569.366 643.358 569.366M630.798 569.366H643.358M643.358 569.366C646.748 569.366 645.87 567.133 639.968 562.946C634.066 558.76 603.723 558.76 587.255 561.551C574.081 563.784 561.483 581.647 556.831 590.3L573.02 580.81V587.114C572.612 589.971 573.775 593.334 580.823 587.125M580.854 587.097C580.843 587.103 580.833 587.108 580.823 587.114C580.823 587.117 580.823 587.121 580.823 587.125M580.854 587.097C580.843 587.106 580.833 587.116 580.823 587.125M580.854 587.097C591.72 581.409 618.701 571.768 639.968 578.585C661.255 585.408 667.264 593.639 667.607 596.901L696.112 604.535C704.206 609.559 720.674 620.166 721.791 622.399C722.907 624.632 720.023 617.189 718.441 613.188C717.046 609.28 717.046 604.144 728.21 614.863C739.375 625.581 746.074 636.076 748.028 639.983C749.703 647.054 752.885 662.146 752.215 665.942C751.545 669.738 746.353 677.944 743.841 681.572V665.942C741.794 669.291 737.868 674.985 738.538 670.966C739.208 666.946 738.817 660.545 738.538 657.847C735.374 662.127 727.987 671.189 723.744 673.199C718.441 675.711 702.531 686.317 682.435 686.875C666.357 687.322 641.311 676.455 630.798 670.966L599.536 636.355C594.609 627.423 584.362 607.829 582.789 600.907C581.219 593.999 580.824 588.849 580.823 587.125M580.854 587.097L580.823 587.125M540.16 393.501C521.267 426.154 485.082 503.166 491.489 549.989C488.203 575.249 483.603 628.973 491.489 641.787L505.659 675.673L545.089 718.183C545.911 721.058 549.648 728.041 558.027 732.969C566.406 737.898 576.715 744.47 580.823 747.14L603.002 759.462C609.369 764.801 625.674 775.603 639.968 776.096C654.261 776.589 670.567 771.783 676.934 769.319L707.122 755.149L728.686 747.14L768.732 724.344L804.465 699.084L851.905 641.787L879.629 584.491C884.147 577.919 895.524 554.548 904.889 513.64C914.253 472.731 917.005 440.735 917.211 429.851C918.238 417.323 917.211 385.985 904.889 360.848C889.486 329.427 883.325 305.399 835.886 291.229C797.935 279.893 762.982 263.916 750.249 257.344C730.739 255.701 686.914 259.192 667.692 286.3C648.47 313.409 656.808 325.525 663.38 328.195C646.745 331.891 608.794 342.488 590.064 355.303C571.335 368.118 548.991 386.108 540.16 393.501ZM709.889 482.743C695.518 486.06 665.268 494.984 659.238 504.149C656.826 506.059 652.364 512.229 653.811 521.636C655.52 517.214 661.891 508.913 673.71 511.084H687.88C695.216 507.466 709.889 496.733 709.889 482.743ZM732.199 458.925C728.581 464.252 720.2 475.146 715.617 476.111C711.034 477.075 713.708 468.674 715.617 464.352C718.13 461.438 724.963 456.272 732.199 458.925ZM715.617 432.093C716.12 439.228 712.783 454.584 695.417 458.925C678.051 463.267 691.799 454.906 700.844 450.182C704.763 446.966 712.904 438.183 714.11 428.776L715.617 432.093ZM586.578 390.788C598.939 385.964 628.425 377.764 647.48 383.552C649.389 385.964 652.062 391.33 647.48 393.501C642.897 395.672 655.017 398.627 661.65 399.833C665.469 397.119 673.951 392.054 677.328 393.501C681.548 395.31 699.035 417.018 695.417 428.776C692.523 438.183 689.186 434.907 687.88 432.093C684.664 429.882 676.122 425.399 667.68 425.158C659.238 424.917 654.917 419.631 653.811 417.018C648.585 413.802 634.998 407.37 622.456 407.37C620.848 404.657 615.883 399.049 608.889 398.325C601.894 397.602 591.1 392.999 586.578 390.788ZM784.659 461.94C775.916 467.87 762.288 485.397 777.725 508.069C775.413 506.662 769.464 501.738 764.158 493.296C759.133 493.497 750.229 503.004 754.811 539.424L757.525 556.609C754.409 548.067 747.877 526.4 746.671 508.069C747.374 494.904 751.254 467.247 761.143 461.94C771.032 456.634 782.75 457.72 787.373 458.925L784.659 461.94ZM777.725 484.251C782.046 478.824 796.538 469.598 819.934 476.111C821.341 478.824 823.31 484.251 819.934 484.251C816.557 484.251 824.557 488.271 828.979 490.281C835.611 489.075 851.229 490.16 860.635 504.149C870.042 518.139 870.987 533.495 870.283 539.424C868.575 535.304 861.118 525.978 844.958 521.636C828.798 517.295 821.542 511.787 819.934 509.576C810.387 501.135 788.579 484.251 777.725 484.251ZM670.448 536.624L690.123 551.55C689.143 548.355 686.324 541.711 682.886 540.695C679.449 539.678 673.162 537.557 670.448 536.624ZM710.478 564.215C715.378 562.498 726.263 560.094 730.606 564.215C734.948 568.336 733.923 570.757 732.867 571.452L710.478 564.215Z" stroke="#E0AB89"/>
<path d="M598.438 489.608C591.846 486.783 577.534 482.829 573.015 489.608C568.495 496.387 571.132 521.151 573.015 532.685C578.9 534.804 593.494 534.804 604.793 517.855C618.917 496.67 619.921 492.554 598.438 489.608Z" fill="#FCD8C0"/>
<path d="M694.375 349.683C709.97 353.372 744.882 365.278 759.773 383.388C762.288 387.245 769.834 394.757 779.895 393.952C789.956 393.147 806.222 403.007 813.097 408.038L853.845 426.148L877.488 445.767L872.458 449.289L806.557 429.669L779.895 410.553L763.797 415.584C754.518 412.398 734.082 401.498 726.571 383.388C719.059 365.278 701.977 353.372 694.375 349.683Z" fill="#FCD8C0"/>
<path d="M768.891 557.17C762.125 572.053 752.654 604.46 768.891 615.014L787.427 622.237L796.415 615.014C797.164 604.239 796.415 579.455 787.427 566.512C778.439 553.569 771.324 554.891 768.891 557.17Z" fill="#FCD8C0"/>
<path d="M504.714 969.419C510.569 945.827 532.427 897.677 573.015 893.816C613.602 889.955 595.867 922.234 581.926 938.856L522.408 987.114L504.714 969.419Z" fill="#FCD8C0"/>
<path d="M709.556 530.6C707.238 532.236 703.993 537.39 709.556 544.916C712.098 544.37 717.182 542.605 717.182 539.913C717.182 536.549 719.541 534.891 714.548 532.746L709.556 530.6Z" fill="#FCD8C0"/>
<path d="M598.438 489.608C591.846 486.783 577.534 482.829 573.015 489.608C568.495 496.387 571.132 521.151 573.015 532.685C578.9 534.804 593.494 534.804 604.793 517.855C618.917 496.67 619.921 492.554 598.438 489.608Z" stroke="#FCD8C0"/>
<path d="M694.375 349.683C709.97 353.372 744.882 365.278 759.773 383.388C762.288 387.245 769.834 394.757 779.895 393.952C789.956 393.147 806.222 403.007 813.097 408.038L853.845 426.148L877.488 445.767L872.458 449.289L806.557 429.669L779.895 410.553L763.797 415.584C754.518 412.398 734.082 401.498 726.571 383.388C719.059 365.278 701.977 353.372 694.375 349.683Z" stroke="#FCD8C0"/>
<path d="M768.891 557.17C762.125 572.053 752.654 604.46 768.891 615.014L787.427 622.237L796.415 615.014C797.164 604.239 796.415 579.455 787.427 566.512C778.439 553.569 771.324 554.891 768.891 557.17Z" stroke="#FCD8C0"/>
<path d="M504.714 969.419C510.569 945.827 532.427 897.677 573.015 893.816C613.602 889.955 595.867 922.234 581.926 938.856L522.408 987.114L504.714 969.419Z" stroke="#FCD8C0"/>
<path d="M709.556 530.6C707.238 532.236 703.993 537.39 709.556 544.916C712.098 544.37 717.182 542.605 717.182 539.913C717.182 536.549 719.541 534.891 714.548 532.746L709.556 530.6Z" stroke="#FCD8C0"/>
<path d="M926.656 576.324L917.845 569.368L891.969 589.771L861.483 636.546L819.726 689.93L829.279 695.958H839.016C841.644 695.649 847.363 694.011 849.218 689.93C851.072 685.85 853.7 681.738 854.782 680.193L867.766 671.382L884.923 650.516L903.007 627.794L910.89 617.129L926.656 589.771V576.324Z" fill="#F5CFAB"/>
<path d="M477.916 333.27L462.949 335.453C460.039 335.973 453.47 337.76 450.476 340.754C447.483 343.747 442.161 350.94 439.874 354.162L427.401 380.043L416.176 409.978L413.058 428.999L416.176 452.386L421.165 475.148L425.531 492.922L427.401 497.599L437.068 502.9L446.111 507.266L456.089 505.395C458.376 501.549 462.949 491.987 462.949 484.503C462.949 475.148 466.691 457.063 472.304 452.386C476.794 448.644 483.321 424.218 486.024 412.472L495.69 374.742L491.013 343.248L479.164 333.27M917.845 569.368L926.656 576.324V589.771L910.89 617.129L903.007 627.794L884.923 650.516L867.766 671.382L854.782 680.193C853.7 681.738 851.072 685.85 849.218 689.93C847.363 694.011 841.644 695.649 839.016 695.958H829.279L819.726 689.93L861.483 636.546L891.969 589.771L917.845 569.368Z" stroke="#F5CFAB"/>
<path d="M434.475 404.835C440.171 395.788 454.998 382.915 461.7 377.61L477.197 355.83L473.009 349.966L453.742 370.071L422.328 415.725V427.872C424.003 423.963 428.778 413.882 434.475 404.835Z" fill="#F0C19B"/>
<path d="M467.145 389.338L477.197 370.071L482.642 372.584L485.574 393.945L488.887 409.41L472.515 451.861L467.145 477.75C466.397 477.75 463.911 478.588 459.951 481.938C455.992 485.289 448.91 483.334 445.865 481.938C443.073 480.479 438.897 477.598 444.532 477.75C450.167 477.902 454.748 472.864 456.335 470.326L453.742 466.519C452.004 468.359 448.948 470.935 450.624 466.519C452.718 460.998 449.482 459.095 445.865 455.858C442.248 452.622 437.489 464.615 434.475 468.993C431.46 473.372 430.636 471.087 428.542 470.326C426.866 469.717 426.574 466.265 426.638 464.615V448.625C427.399 445.452 429.265 440.591 430.636 446.531C432.349 453.955 436.156 446.34 437.489 444.627C438.821 442.914 437.298 438.155 434.475 435.68C432.216 433.7 432.137 431.325 432.38 430.385C436.367 429.866 444.646 431.53 445.865 442.343L455.383 449.957C456.208 451.48 459.038 454.336 463.759 453.574C461.792 446.682 459.495 432.396 466.043 430.385L472.515 421.974L478.988 414.74C480.193 412.011 482.11 405.945 480.13 403.509C478.771 402.811 474.27 403.47 467.145 411.694L463.759 417.024C464.203 413.534 466.043 405.564 469.85 401.605C473.658 397.645 478.29 396.275 480.13 396.084L471.503 390.427L467.145 389.338Z" fill="#F0C19B"/>
<path d="M917.385 591.774L923.262 572.183L893.876 598.141L891.917 615.772L903.671 598.141L912.242 591.774H917.385Z" fill="#F0C19B"/>
<path d="M872.3 656.606C876.921 653.444 880.915 643.836 882.334 639.426L881.27 645.964C878.229 652.532 874.023 655.796 872.3 656.606Z" fill="#F0C19B"/>
<path d="M485.574 393.945L482.642 372.584L477.197 370.071L467.145 389.338L471.503 390.427M485.574 393.945L471.503 390.427M485.574 393.945L488.887 409.41L472.515 451.861L467.145 477.75C466.397 477.75 463.911 478.588 459.951 481.938C455.992 485.289 448.91 483.334 445.865 481.938C443.073 480.479 438.897 477.598 444.532 477.75C450.167 477.902 454.748 472.864 456.335 470.326L453.742 466.519C452.004 468.359 448.949 470.935 450.624 466.519C452.718 460.998 449.482 459.095 445.865 455.858C442.248 452.622 437.489 464.615 434.475 468.993C431.46 473.372 430.636 471.087 428.542 470.326C426.866 469.717 426.574 466.265 426.638 464.615V448.625C427.399 445.452 429.265 440.591 430.636 446.531C432.349 453.955 436.156 446.34 437.489 444.627C438.821 442.914 437.298 438.155 434.475 435.68C432.216 433.7 432.137 431.325 432.38 430.385C436.367 429.866 444.646 431.53 445.865 442.343L455.383 449.957C456.208 451.48 459.038 454.336 463.759 453.574C461.792 446.682 459.495 432.396 466.043 430.385L472.515 421.974L478.988 414.74C480.193 412.011 482.11 405.945 480.13 403.509C478.771 402.811 474.27 403.47 467.145 411.694L463.759 417.024C464.203 413.534 466.043 405.564 469.85 401.605C473.658 397.645 478.29 396.275 480.13 396.084L471.503 390.427M461.7 377.61C454.998 382.915 440.171 395.788 434.475 404.835C428.778 413.882 424.003 423.963 422.328 427.872V415.725L453.742 370.071L473.009 349.966L477.197 355.83L461.7 377.61ZM923.262 572.183L917.385 591.774H912.242L903.671 598.141L891.917 615.772L893.876 598.141L923.262 572.183ZM882.334 639.426C880.915 643.836 876.921 653.444 872.3 656.606C874.023 655.796 878.229 652.532 881.27 645.964L882.334 639.426Z" stroke="#F0C19B"/>
<path d="M426.294 414.93C427.006 406.865 459.205 369.468 475.215 351.777C480.743 345.591 487.797 351.176 490.633 354.742L482.628 335.767L470.768 333.691L467.507 339.621C459.916 341.281 452.089 350.394 449.124 354.742C461.221 341.697 468.594 344.563 470.768 347.626L464.245 357.114L447.642 374.903L423.33 414.93C417.4 429.873 424.219 439.934 428.37 443.096C419.119 433.846 423.132 420.464 426.294 414.93Z" fill="#E0AB89"/>
<path d="M468.571 405.368C468.073 406.172 467.722 406.911 467.507 407.517C467.507 406.861 467.9 406.132 468.571 405.368C470.588 402.114 475.019 397.795 482.628 396.844C478.583 398.588 471.294 402.267 468.571 405.368Z" fill="#E0AB89"/>
<path d="M436.375 434.202C438.549 434.992 443.194 437.878 444.38 443.096C447.938 443.689 455.173 445.883 455.647 449.916C457.827 452.236 461.317 456.687 462.466 460.429L461.174 455.154C462.856 454.989 465.851 453.712 464.374 449.916C462.897 446.119 462.487 439.637 462.466 436.87C463.344 440.361 465.581 447.602 467.507 448.63C468.136 448.638 469.693 447.785 470.883 444.306L478.55 419.588L485.187 404.369L486.675 403.453L478.55 434.202L472.961 452.161C473.776 452.923 473.927 453.495 472.545 453.495L473.736 461.938C472.691 464.734 468.019 475.58 468.019 478.042C468.019 480.503 465.01 481.336 464.374 483.264C465.051 487.983 462.971 496.633 456.866 503.526C450.761 510.419 454.322 504.428 456.866 500.572C457.892 496.264 459.845 486.959 459.451 484.202C460.6 478.984 462.553 468.183 461.174 466.723C460.145 465.634 460.145 465.349 460.379 465.346C457.82 464.523 454.08 459.386 452.089 456.142C450.211 451.991 445.448 444.935 441.415 449.916C437.383 454.897 433.608 459.107 432.224 460.589C431.928 458.118 432.343 451.991 436.375 447.247C439.044 446.16 442.779 442.029 436.375 434.202Z" fill="#E0AB89"/>
<path d="M903.554 596.008C912.521 592.88 918.587 579.064 920.498 572.547L910.592 576.196C907.377 581.149 900.269 591.577 897.558 593.662C894.847 595.748 891.215 612.431 889.738 620.512C892.866 610.085 900.252 599.832 903.554 596.008Z" fill="#E0AB89"/>
<path d="M889.738 629.079C889.738 626.972 888.521 626.14 887.913 625.987L883.845 639.217C885.809 636.716 889.738 631.186 889.738 629.079Z" fill="#E0AB89"/>
<path d="M859.618 661.996C862.202 661.5 867.177 660.263 870.001 658.697L871.6 657.519C871.233 657.927 870.679 658.322 870.001 658.697L866.523 661.26L859.618 661.996Z" fill="#E0AB89"/>
<path d="M849.249 658.508C850.403 657.055 853.763 653.687 857.969 651.84C862.123 650.016 866.369 637.535 868.038 631.297C868.657 630.558 869.843 628.461 869.638 625.987C869.433 623.513 864.509 631.334 862.072 635.554L819.883 687.618L826.551 693.645L828.603 689.798L834.373 680.052L849.249 658.508Z" fill="#E0AB89"/>
<path d="M462.466 460.429C461.317 456.687 457.827 452.236 455.647 449.916C455.173 445.883 447.938 443.689 444.38 443.096C443.194 437.878 438.549 434.992 436.375 434.202C442.779 442.029 439.044 446.16 436.375 447.247C432.343 451.991 431.928 458.118 432.224 460.589C433.608 459.107 437.383 454.897 441.415 449.916C445.448 444.935 450.211 451.991 452.089 456.142C454.157 459.511 458.11 464.921 460.669 465.422M462.466 460.429C462.933 461.947 463.014 463.348 462.466 464.444C462.039 465.298 461.413 465.568 460.669 465.422M462.466 460.429L461.174 455.154C462.856 454.989 465.851 453.712 464.374 449.916C462.897 446.119 462.487 439.637 462.466 436.87C463.344 440.361 465.581 447.602 467.507 448.63M467.507 448.63C469.432 449.658 476.122 453.495 472.545 453.495M467.507 448.63C468.136 448.638 469.693 447.785 470.883 444.306L478.55 419.588L485.187 404.369L486.675 403.453L478.55 434.202L472.545 453.495M472.545 453.495L473.736 461.938C472.691 464.734 468.019 475.58 468.019 478.042C468.019 480.503 465.01 481.336 464.374 483.264C465.051 487.983 462.971 496.633 456.866 503.526C450.761 510.419 454.322 504.428 456.866 500.572C457.892 496.264 459.845 486.959 459.451 484.202C460.6 478.984 462.553 468.183 461.174 466.723C459.796 465.264 460.263 465.248 460.669 465.422M868.099 631.066C868.079 631.142 868.059 631.219 868.038 631.297M868.038 631.297C866.369 637.535 862.123 650.016 857.969 651.84C853.763 653.687 850.403 657.055 849.249 658.508L834.373 680.052L828.603 689.798L826.551 693.645L819.883 687.618L862.072 635.554C864.509 631.334 869.433 623.513 869.638 625.987C869.843 628.461 868.657 630.558 868.038 631.297ZM475.215 351.777C459.205 369.468 427.006 406.865 426.294 414.93C423.132 420.464 419.119 433.846 428.37 443.096C424.219 439.934 417.4 429.873 423.33 414.93L447.642 374.903L464.245 357.114L470.768 347.626C468.594 344.563 461.221 341.697 449.124 354.742C452.089 350.394 459.916 341.281 467.507 339.621L470.768 333.691L482.628 335.767L490.633 354.742C487.797 351.176 480.743 345.591 475.215 351.777ZM467.507 407.517C468.594 404.454 473.14 398.03 482.628 396.844C477.587 399.018 467.507 404.197 467.507 407.517ZM920.498 572.547C918.587 579.064 912.521 592.88 903.554 596.008C900.252 599.832 892.866 610.085 889.738 620.512C891.215 612.431 894.847 595.748 897.558 593.662C900.269 591.577 907.377 581.149 910.592 576.196L920.498 572.547ZM887.913 625.987C888.521 626.14 889.738 626.972 889.738 629.079C889.738 631.186 885.809 636.716 883.845 639.217L887.913 625.987ZM859.618 661.996C862.822 661.381 869.704 659.626 871.6 657.519L866.523 661.26L859.618 661.996Z" stroke="#E0AB89"/>
<path d="M718.867 391.586C704.616 370.977 662.632 332.654 608.699 344.23C617.249 337.543 641.322 327.195 669.209 339.297C697.096 351.399 713.934 379.199 718.867 391.586Z" fill="black"/>
<path d="M810.948 440.257C839.668 442.778 896.912 457.818 896.122 497.807C897.547 488.38 897.569 466.96 886.257 456.7C872.116 443.874 831.337 434.995 810.948 440.257Z" fill="black"/>
<path d="M718.867 391.586C704.616 370.977 662.632 332.654 608.699 344.23C617.249 337.543 641.322 327.195 669.209 339.297C697.096 351.399 713.934 379.199 718.867 391.586Z" stroke="black"/>
<path d="M810.948 440.257C839.668 442.778 896.912 457.818 896.122 497.807C897.547 488.38 897.569 466.96 886.257 456.7C872.116 443.874 831.337 434.995 810.948 440.257Z" stroke="black"/>
<path d="M528.5 361L471 454L486.5 405.5L478.5 370.765L476.989 375.536C476.521 374.039 475.473 369.362 475.024 362.626C474.575 355.89 477.154 340.402 478.5 333.5C476.1 332.7 492.5 298.5 501 281.5V276L507.5 261.5L512.5 255.5V246L535.5 220L553 205.5L576.5 191L593.5 183.5L612.5 176.5C615.167 175.333 622.7 172.5 631.5 170.5C640.3 168.5 654.167 165.667 660 164.5L680.5 161.5L698.5 159.5L719 157H741.5L768.5 159.5L787 164.5L805.5 168L841 180L864.5 191L885.5 205L901.5 217L910 227L919.5 231L934 242L949 257.5C952.167 260.833 959.1 268.9 961.5 274.5C963.9 280.1 969.5 291.5 972 296.5L979.5 322.5L981.5 342V367.5V378.5L979.5 395.5L985.5 414.5L991.5 437.5V470.5L988.5 484.5L983.5 501L973 524L962.5 542L950.5 560L940 575.5L927 588C926 579.667 922 565.5 914 575.5C906 585.5 874 622 859 639C868.167 625.833 888.9 592.5 898.5 564.5C908.1 536.5 918.5 479.167 922.5 454C925.667 434.167 929.7 388.5 920.5 364.5C909 334.5 896 312.5 877 293.5C861.8 278.3 812 274.5 789 274.5C766.5 284.167 711 302.5 669 298.5C686.167 299.667 737 294.7 803 265.5C789.833 269.833 744.6 278.7 669 279.5C692.333 278 749.7 269.5 792.5 247.5C783.833 245.833 761 244.8 739 254C717 263.2 745.5 246.833 762.5 237.5C738.903 244.554 689.154 262.067 642.87 285.258C632.225 298.47 621.922 313.809 607 341C610.993 329.949 620.067 310.382 633.686 289.96C629.373 292.219 625.108 294.525 620.916 296.875C613.761 307.667 607.447 319.773 603 333C604.709 325.542 607.997 313.76 612.479 301.726C609.259 303.626 606.095 305.551 603 307.5C605.864 305.558 609.151 303.355 612.765 300.962C617.86 287.424 624.454 273.675 632 265.5C609.5 280.333 563 313.1 557 325.5L528.5 361Z" fill="black"/>
<path d="M486.5 405.5L471 454L528.5 361L557 325.5C563 313.1 609.5 280.333 632 265.5C617.6 281.1 606.667 317 603 333C618.6 286.6 657.167 254 674.5 243.5C637.7 273.9 614.167 321.167 607 341C629.5 300 641.5 285.946 660 265.5C674.8 249.143 697.833 245.685 707.5 246C682.3 255.6 627.333 291 603 307.5C657 273.5 731.833 246.667 762.5 237.5C745.5 246.833 717 263.2 739 254C761 244.8 783.833 245.833 792.5 247.5C749.7 269.5 692.333 278 669 279.5C744.6 278.7 789.833 269.833 803 265.5C737 294.7 686.167 299.667 669 298.5C711 302.5 766.5 284.167 789 274.5C812 274.5 861.8 278.3 877 293.5C896 312.5 909 334.5 920.5 364.5C929.7 388.5 925.667 434.167 922.5 454C918.5 479.167 908.1 536.5 898.5 564.5C888.9 592.5 868.167 625.833 859 639C874 622 906 585.5 914 575.5C922 565.5 926 579.667 927 588L940 575.5L950.5 560L962.5 542L973 524L983.5 501L988.5 484.5L991.5 470.5V437.5L985.5 414.5L979.5 395.5L981.5 378.5V367.5V342L979.5 322.5L972 296.5C969.5 291.5 963.9 280.1 961.5 274.5C959.1 268.9 952.167 260.833 949 257.5L934 242L919.5 231L910 227L901.5 217L885.5 205L864.5 191L841 180L805.5 168L787 164.5L768.5 159.5L741.5 157H719L698.5 159.5L680.5 161.5L660 164.5C654.167 165.667 640.3 168.5 631.5 170.5C622.7 172.5 615.167 175.333 612.5 176.5L593.5 183.5L576.5 191L553 205.5L535.5 220L512.5 246V255.5L507.5 261.5L501 276V281.5C492.5 298.5 476.1 332.7 478.5 333.5M486.5 405.5C488.833 398.667 493.2 381.5 492 367.5C490.5 350 481.5 334.5 478.5 333.5M486.5 405.5L478.5 370.765L476.989 375.536C476.521 374.039 475.473 369.362 475.024 362.626C474.575 355.89 477.154 340.402 478.5 333.5" stroke="black" stroke-width="3"/>
<path d="M554.247 235.604C564.231 227.659 586.646 211.895 596.433 212.402C594.183 213.808 589.262 217.295 587.574 219.995C591.652 217.464 603.141 212.402 616.472 212.402C608.456 214.722 590.907 222.611 584.832 235.604L582.935 241.521C582.653 238.318 582.638 231.101 584.832 227.858C583.449 228.468 579.542 230.87 574.978 235.604C576.084 232.822 579.224 226.387 582.935 222.904C581.527 222.712 573.817 224.985 554.247 235.604Z" fill="#323232"/>
<path d="M591.317 237.666L602.641 227.858L600.792 232.649L612.412 222.904L605.259 234.364L597.207 240.703L599.3 235.604L591.317 237.666Z" fill="#323232"/>
<path d="M595.309 246.82L579.2 271.196C583.192 267.87 591.203 261.275 591.317 261.503C591.431 261.731 588.869 268.06 587.574 271.196L599.3 258.224C597.434 258.777 594.407 259.687 593.465 260.01L593.455 260.077C593.051 260.17 593.111 260.132 593.465 260.01L595.309 246.82Z" fill="#323232"/>
<path d="M674.639 215.066C662.217 221.57 634.602 238.792 623.52 255.649C630.414 247.684 649.665 229.401 671.517 219.995L679.712 216.822C679.535 215.409 678.274 213.079 674.639 215.066Z" fill="#323232"/>
<path d="M593.465 260.01C594.407 259.687 597.434 258.777 599.3 258.224L587.574 271.196C588.869 268.06 591.431 261.731 591.317 261.503C591.203 261.275 583.192 267.87 579.2 271.196L595.309 246.82L593.465 260.01ZM593.465 260.01L593.455 260.077C593.051 260.17 593.111 260.132 593.465 260.01ZM554.247 235.604C564.231 227.659 586.646 211.895 596.433 212.402C594.183 213.808 589.262 217.295 587.574 219.995C591.652 217.464 603.141 212.402 616.472 212.402C608.456 214.722 590.907 222.611 584.832 235.604L582.935 241.521C582.653 238.318 582.638 231.101 584.832 227.858C583.449 228.468 579.542 230.87 574.978 235.604C576.084 232.822 579.224 226.387 582.935 222.904C581.527 222.712 573.817 224.985 554.247 235.604ZM674.639 215.066C662.217 221.57 634.602 238.792 623.52 255.649C630.414 247.684 649.665 229.401 671.517 219.995L679.712 216.822C679.535 215.409 678.274 213.079 674.639 215.066ZM591.317 237.666L602.641 227.858L600.792 232.649L612.412 222.904L605.259 234.364L597.207 240.703L599.3 235.604L591.317 237.666Z" stroke="#323232"/>
<path d="M793.495 484.523C794.868 485.684 802.691 492.399 806.431 495.611L817.915 504.322L834.81 511.714L844.182 513.43H852.894C855.111 513.43 855.402 512.286 855.27 511.714L849.33 504.322L842.73 497.195L830.982 488.483L817.915 483.467L806.431 480.695L791.275 480.159C791.483 481.226 792.176 483.407 793.495 484.523Z" fill="white"/>
<path d="M627.048 390.805L628.368 394.501C628.192 394.765 628.949 396.296 633.384 400.309C637.819 404.322 642.271 408.405 643.943 409.945L659.123 418.129L674.831 422.88L690.274 424.068L676.282 408.229L661.631 398.065L642.095 391.861L627.048 390.805Z" fill="white"/>
<path d="M791.252 480.035C791.258 480.074 791.266 480.116 791.275 480.159M844.182 513.43L834.81 511.714L817.915 504.322L806.431 495.611C802.691 492.399 794.868 485.684 793.495 484.523C792.176 483.407 791.483 481.226 791.275 480.159M844.182 513.43C846.162 513.43 850.676 513.43 852.894 513.43M844.182 513.43H852.894M852.894 513.43C855.111 513.43 855.402 512.286 855.27 511.714L849.33 504.322L842.73 497.195L830.982 488.483L817.915 483.467L806.431 480.695L791.275 480.159M627.048 390.805L628.368 394.501C628.192 394.765 628.949 396.296 633.384 400.309C637.819 404.322 642.271 408.405 643.943 409.945L659.123 418.129L674.831 422.88L690.274 424.068L676.282 408.229L661.631 398.065L642.095 391.861L627.048 390.805Z" stroke="black"/>
<path d="M631.951 397.771C633.765 397.09 637.869 396.308 639.774 398.621C641.679 400.934 644.026 396.41 644.961 393.859L641.73 391.563L627.699 390.288V391.563L631.951 397.771Z" fill="#A7A3A3"/>
<path d="M670.896 408.655C674.212 410.242 681.899 415.39 686.117 423.281L688.498 424.131L689.008 420.9L679.569 410.1C677.189 407.578 672.274 403.145 671.661 405.594L670.896 408.655Z" fill="#A7A3A3"/>
<path d="M793.059 482.42C798.047 482.241 809.282 482.65 814.316 485.72C819.35 488.789 816.414 485.208 814.316 483.034L796.743 480.194H792.215L793.059 482.42Z" fill="#A7A3A3"/>
<path d="M840.868 502.065C843.579 503.83 848.235 508.481 845.165 512.962H854.834L851.765 506.746L843.554 498.228L840.868 502.065Z" fill="#A7A3A3"/>
<path d="M631.951 397.771C633.765 397.09 637.869 396.308 639.774 398.621C641.679 400.934 644.026 396.41 644.961 393.859L641.73 391.563L627.699 390.288V391.563L631.951 397.771Z" stroke="#D9D9D9"/>
<path d="M670.896 408.655C674.212 410.242 681.899 415.39 686.117 423.281L688.498 424.131L689.008 420.9L679.569 410.1C677.189 407.578 672.274 403.145 671.661 405.594L670.896 408.655Z" stroke="#D9D9D9"/>
<path d="M793.059 482.42C798.047 482.241 809.282 482.65 814.316 485.72C819.35 488.789 816.414 485.208 814.316 483.034L796.743 480.194H792.215L793.059 482.42Z" stroke="#D9D9D9"/>
<path d="M840.868 502.065C843.579 503.83 848.235 508.481 845.165 512.962H854.834L851.765 506.746L843.554 498.228L840.868 502.065Z" stroke="#D9D9D9"/>
<path d="M696.5 436C695.312 432.628 693.42 428.663 690.773 424.5M614 391C655.335 386.156 679.681 407.057 690.773 424.5M626.5 391C632.015 401.5 652.591 422.9 690.773 424.5M783.5 480.5C785.436 480.203 787.621 479.984 790 479.875M860 521.5C858.712 518.463 857.28 515.634 855.725 513M790 479.875C808.612 479.02 839.135 484.886 855.725 513M790 479.875C800.484 492.917 828.305 517.8 855.725 513" stroke="black" stroke-width="3"/>
<path d="M638.5 404.5C638.5 396.9 642.833 393.667 645 393L652 394.5L660.5 397.5L672.5 404.5C670.134 413.993 667.568 417.055 660.5 418L654.5 416L647.5 412L638.5 404.5Z" fill="black"/>
<path d="M811.5 499.5C809.365 491.678 810.163 488.081 815 483L824 486L833.5 491L843.5 498.5C839.235 506.325 836.35 508.683 830.5 510L822.5 506.5L811.5 499.5Z" fill="black"/>
<path d="M638.5 404.5C638.5 396.9 642.833 393.667 645 393L652 394.5L660.5 397.5L672.5 404.5C670.134 413.993 667.568 417.055 660.5 418L654.5 416L647.5 412L638.5 404.5Z" stroke="black"/>
<path d="M811.5 499.5C809.365 491.678 810.163 488.081 815 483L824 486L833.5 491L843.5 498.5C839.235 506.325 836.35 508.683 830.5 510L822.5 506.5L811.5 499.5Z" stroke="black"/>
<circle cx="825.012" cy="493.372" r="2" fill="#D9D9D9"/>
<circle cx="656.925" cy="401.936" r="2" fill="#D9D9D9"/>
<path d="M663.488 499.087C652.269 507.154 635.732 527.448 659.328 544.086L663.488 546.733C662.605 542.321 663.866 534.33 675.966 537.658C688.067 540.985 690.588 551.649 690.336 556.565M705.462 566.397C713.529 562.994 730.344 558.834 733.067 569.422C735.789 580.01 725.378 582.657 719.831 582.657C728.529 583.918 746.982 584.245 751.218 575.472C756.512 564.506 757.268 557.321 754.243 541.439C751.218 525.557 740.251 505.893 754.243 482.448C765.436 463.692 780.083 453.457 786.007 450.684" stroke="#E0AB89" stroke-width="3"/>
<path d="M595.657 586.77L645.25 592.385L699.148 623.638L712.81 639.171L719.173 649.277L707.383 659.57L657.789 643.288L606.137 611.848L592.663 596.876L595.657 586.77Z" fill="#A3765F"/>
<path d="M723.5 639.962L714.204 645.991L709.934 658.552L721.741 664.833L724.756 662.321L726.189 655.087L725.668 645.991L724.169 639.573L723.5 639.962Z" fill="#956251"/>
<path d="M594.624 586.703L600.402 591.728L592.111 603.786L585.649 590.553L594.624 586.703Z" fill="#956251"/>
<path d="M723.5 639.962L714.204 645.991L709.934 658.552L721.741 664.833L724.756 662.321L726.189 655.087L725.668 645.991L724.169 639.573L723.5 639.962Z" stroke="#956251"/>
<path d="M594.624 586.703L600.402 591.728L592.111 603.786L585.649 590.553L594.624 586.703Z" stroke="#956251"/>
<path d="M594.549 596.642C595.125 594.425 597.022 590.073 600.001 590.392C603.724 590.791 605.32 592.653 606.516 597.306V602.625C606.516 603.955 609.707 591.589 614.361 590.392C618.084 589.435 621.409 589.993 622.605 590.392C624.555 591.633 628.509 595.578 628.722 601.428C630.184 600.409 633.748 598.796 636.301 600.498C639.492 602.625 643.614 604.221 641.62 614.06C642.772 610.116 646.327 601.881 651.326 600.498C656.326 599.115 664.579 606.215 668.08 609.938C668.447 611.507 668.774 615.266 667.96 620.069C669.144 616.438 671.108 612.747 673.931 612.465C678.186 612.039 685.632 618.227 688.823 621.373C689.771 623.309 691.184 628.639 690.124 635.724C690.516 634.395 691.131 633.291 692.014 633.606C693.876 634.271 697.333 633.872 696.136 640.654C696.89 638.305 699.46 633.606 703.715 633.606C707.97 633.606 712.491 639.9 714.22 643.047C714.751 645.573 715.044 651.397 711.959 654.482L709.699 656.876L653.188 639.723L594.549 599.7V596.642Z" fill="#E5CEBC"/>
<path d="M603.49 593.186C603.961 593.775 605.079 596.117 605.786 600.779C604.903 601.073 603.066 601.485 602.784 600.779C603.255 600.308 604.055 598.13 603.49 593.186Z" fill="#EDE0D7"/>
<path d="M625.563 597.424C626.564 597.836 628.265 599.543 627.064 603.075C625.863 606.606 623.503 609.903 622.473 611.109C621.796 611.315 620.001 611.374 618.235 609.962C619.206 609.667 621.325 608.708 622.032 607.224C622.738 605.741 624.268 601.721 624.945 599.896L625.563 597.424Z" fill="#EDE0D7"/>
<path d="M639.602 604.134C640.426 605.459 641.827 608.99 640.838 612.522C639.849 616.054 638.542 617.643 638.012 617.996C636.953 618.232 634.41 618.473 632.715 617.555C633.657 617.172 635.787 615.824 636.776 613.493C637.765 611.162 638.366 607.107 638.542 605.37V603.693L639.602 604.134Z" fill="#EDE0D7"/>
<path d="M663.617 613.758C665.412 614.141 668.191 617.184 664.941 626.296C664.353 628.679 662.54 633.359 659.997 633.006H658.231C659.261 632.711 661.551 630.957 662.469 626.296C663.387 621.634 663.911 619.88 664.059 619.585C664.294 618.467 664.535 615.736 663.617 613.758Z" fill="#EDE0D7"/>
<path d="M686.573 625.324C687.78 625.619 690.105 627.231 689.751 631.328C689.398 635.425 687.485 640.098 686.573 641.923C685.69 642.512 683.341 643.336 681.011 641.923C681.687 642.1 683.394 641.694 684.807 638.656C686.22 635.619 687.22 631.681 687.544 630.092C688.044 629.239 688.551 627.09 686.573 625.324Z" fill="#EDE0D7"/>
<path d="M695.49 636.891C695.137 639.51 694.078 644.572 692.665 643.866H691.694L695.49 636.891Z" fill="#EDE0D7"/>
<path d="M712.442 645.19C712.648 647.309 712.478 651.953 710.147 653.578L707.322 652.695C708.646 652.077 711.295 649.446 711.295 643.866L712.442 645.19Z" fill="#EDE0D7"/>
<path d="M603.49 593.186C603.961 593.775 605.079 596.117 605.786 600.779C604.903 601.073 603.066 601.485 602.784 600.779C603.255 600.308 604.055 598.13 603.49 593.186Z" stroke="#EDE0D7"/>
<path d="M625.563 597.424C626.564 597.836 628.265 599.543 627.064 603.075C625.863 606.606 623.503 609.903 622.473 611.109C621.796 611.315 620.001 611.374 618.235 609.962C619.206 609.667 621.325 608.708 622.032 607.224C622.738 605.741 624.268 601.721 624.945 599.896L625.563 597.424Z" stroke="#EDE0D7"/>
<path d="M639.602 604.134C640.426 605.459 641.827 608.99 640.838 612.522C639.849 616.054 638.542 617.643 638.012 617.996C636.953 618.232 634.41 618.473 632.715 617.555C633.657 617.172 635.787 615.824 636.776 613.493C637.765 611.162 638.366 607.107 638.542 605.37V603.693L639.602 604.134Z" stroke="#EDE0D7"/>
<path d="M663.617 613.758C665.412 614.141 668.191 617.184 664.941 626.296C664.353 628.679 662.54 633.359 659.997 633.006H658.231C659.261 632.711 661.551 630.957 662.469 626.296C663.387 621.634 663.911 619.88 664.059 619.585C664.294 618.467 664.535 615.736 663.617 613.758Z" stroke="#EDE0D7"/>
<path d="M686.573 625.324C687.78 625.619 690.105 627.231 689.751 631.328C689.398 635.425 687.485 640.098 686.573 641.923C685.69 642.512 683.341 643.336 681.011 641.923C681.687 642.1 683.394 641.694 684.807 638.656C686.22 635.619 687.22 631.681 687.544 630.092C688.044 629.239 688.551 627.09 686.573 625.324Z" stroke="#EDE0D7"/>
<path d="M695.49 636.891C695.137 639.51 694.078 644.572 692.665 643.866H691.694L695.49 636.891Z" stroke="#EDE0D7"/>
<path d="M712.442 645.19C712.648 647.309 712.478 651.953 710.147 653.578L707.322 652.695C708.646 652.077 711.295 649.446 711.295 643.866L712.442 645.19Z" stroke="#EDE0D7"/>
<path d="M594.702 597.007L585.766 591.73L590.792 602.453L594.702 610.692C594.702 611.437 595.651 614.295 599.45 619.769C603.248 625.243 605.501 627.822 606.152 628.427L615.369 639.458L624.445 649.094L631.707 655.517L641.901 661.103L655.865 667.526L672.063 671.576H696.5L717.866 666.13L724.149 663.197C721.245 659.288 714.188 656.448 711.023 655.517C709.673 655.191 705.689 654.149 700.55 652.585C695.411 651.021 692.265 647.185 691.334 645.463C690.328 645.128 688.96 643.555 688.401 642.81C687.843 644.486 684.352 644.625 682.676 644.486C674.437 642.531 672.761 641.134 668.293 639.458C664.718 638.118 663.452 635.362 663.266 634.152C660.361 636.163 655.073 634.99 652.793 634.152C652.281 633.919 649.804 632.616 643.995 629.265C638.186 625.913 637.292 621.538 637.572 619.769C631.316 620.328 624.725 615.44 622.211 612.927C616.29 612.145 608.573 605.619 605.454 602.453C599.087 603.235 595.633 599.149 594.702 597.007Z" fill="#C69076" stroke="#C69076"/>
<path d="M615.461 622.833L629.449 637.958L630 641.574H631.336C631.65 641.574 631.781 643.932 631.808 645.111L635.03 644.325L636.052 647.548H640.297L642.812 651.478H646.82L647.371 654.072L652.087 652.185L654.13 657.137L656.567 652.185L658.925 649.67V647.548L656.017 650.928L641.161 640.867L635.03 640.238V636.937C633.642 636.91 630.959 636.779 631.336 636.465C631.713 636.151 632.384 634.185 632.672 633.242L629.449 634.736L623.79 630.491L615.461 622.833Z" fill="#EBA486"/>
<path d="M658.925 651.871L656.567 655.094C656.305 655.853 655.938 657.436 656.567 657.687C657.196 657.939 659.554 658.211 660.654 658.316H663.17C662.488 658.054 661.142 657.184 661.205 655.801C661.267 654.418 661.231 652.814 661.205 652.185L658.925 651.871Z" fill="#EBA486"/>
<path d="M661.833 649.277V650.928L665.135 655.801L666.55 654.072L661.833 649.277Z" fill="#EBA486"/>
<path d="M669.222 655.094L666.157 657.687V660.438L669.222 655.094Z" fill="#EBA486"/>
<path d="M673.038 657.44C672.114 658.308 670.381 660.219 670.844 660.914C671.307 661.609 672.5 658.887 673.038 657.44Z" fill="#EBA486"/>
<path d="M676.514 659.54C676.196 659.914 675.751 660.831 676.514 661.504C677.277 662.177 676.832 660.475 676.514 659.54Z" fill="#EBA486"/>
<path d="M675.117 663.032C673.991 663.006 671.674 663.315 671.423 664.762C671.171 666.208 673.781 664.211 675.117 663.032Z" fill="#EBA486"/>
<path d="M693.587 662.65C694.216 664.02 695.25 667.021 694.361 668.066C693.471 669.11 695.312 668.501 696.343 668.066C696.279 666.76 695.637 663.849 693.587 662.65Z" fill="#EBA486"/>
<path d="M605.122 609.477C603.933 609.717 601.579 610.585 601.68 612.137C601.78 613.689 604.016 611.01 605.122 609.477Z" fill="#EBA486"/>
<path d="M630 641.574L629.449 637.958L615.461 622.833L623.79 630.491L629.449 634.736L632.672 633.242C632.384 634.185 631.713 636.151 631.336 636.465C630.959 636.779 633.642 636.91 635.03 636.937V640.238L641.161 640.867L656.017 650.928L658.925 647.548V649.67L656.567 652.185L654.13 657.137L652.087 652.185L647.371 654.072L646.82 651.478H642.812L640.297 647.548H636.052L635.03 644.325L631.808 645.111C631.781 643.932 631.65 641.574 631.336 641.574M630 641.574C630.314 641.574 631.022 641.574 631.336 641.574M630 641.574H631.336M658.925 651.871L656.567 655.094C656.305 655.853 655.938 657.436 656.567 657.687C657.196 657.939 659.554 658.211 660.654 658.316H663.17C662.488 658.054 661.142 657.184 661.205 655.801C661.267 654.418 661.231 652.814 661.205 652.185L658.925 651.871ZM661.833 649.277V650.928L665.135 655.801L666.55 654.072L661.833 649.277ZM669.222 655.094L666.157 657.687V660.438L669.222 655.094ZM675.117 663.032C673.991 663.006 671.674 663.315 671.423 664.762C671.171 666.208 673.781 664.211 675.117 663.032ZM676.514 659.54C676.196 659.914 675.751 660.831 676.514 661.504C677.277 662.177 676.832 660.475 676.514 659.54ZM693.587 662.65C694.216 664.02 695.25 667.021 694.361 668.066C693.471 669.11 695.312 668.501 696.343 668.066C696.279 666.76 695.637 663.849 693.587 662.65ZM673.038 657.44C672.114 658.308 670.381 660.219 670.844 660.914C671.307 661.609 672.5 658.887 673.038 657.44ZM605.122 609.477C603.933 609.717 601.579 610.585 601.68 612.137C601.78 613.689 604.016 611.01 605.122 609.477Z" stroke="#EBA486"/>
<path d="M643.286 602.11C623.93 593.384 599.17 589.729 587.055 591.595L585.798 590.567L593.912 587.024L607.17 582.224L619.513 580.281L630.714 579.595L643.286 581.652L657.001 586.452L670.144 593.996L678.03 602.11L692.316 605.653C695.364 606.987 702.74 610.59 707.86 614.339C712.98 618.088 714.489 620.778 714.603 621.654L724.432 639.826L725.575 651.369L724.432 661.884C716.935 643.963 699.06 630.492 691.059 625.997C683.745 621.654 662.452 610.751 643.286 602.11Z" fill="#C69076" stroke="#C69076"/>
<path d="M577.091 585.436C587.679 568.966 624.883 565.583 642.162 565.951C629.537 561.31 603.867 561.942 592.61 562.838C580.944 563.66 565.308 579.634 558.526 588.01C562.406 583.39 572.411 576.59 577.091 573.671C569.812 580.951 566.95 585.528 566.429 586.906C569.518 582.348 580.951 576.184 586.282 573.671C581.282 576.318 578.071 582.617 577.091 585.436Z" fill="black"/>
<path d="M719.036 609.679C728.632 621.071 745.268 647.149 735.047 660.326C736.996 658.581 741.081 653.83 741.82 648.78C741.717 653.604 740.866 664.298 738.279 668.485C740.435 666.689 744.868 662.543 745.361 660.326C745.823 664.944 746.254 675.536 744.283 680.954C748.337 675.72 754.012 659.587 744.283 636.927C740.896 631.487 731.106 618.423 719.036 609.679Z" fill="black"/>
<path d="M558.526 588.01C565.308 579.634 580.944 563.66 592.61 562.838C603.867 561.942 629.537 561.31 642.162 565.951C624.883 565.583 587.679 568.966 577.091 585.436C578.071 582.617 581.282 576.318 586.282 573.671C580.951 576.184 569.518 582.348 566.429 586.906C566.95 585.528 569.812 580.951 577.091 573.671C572.411 576.59 562.406 583.39 558.526 588.01ZM558.526 588.01C558.383 588.187 558.243 588.361 558.108 588.531C558.238 588.361 558.378 588.187 558.526 588.01ZM719.036 609.679C728.632 621.071 745.268 647.149 735.047 660.326C736.996 658.581 741.081 653.83 741.82 648.78C741.717 653.604 740.866 664.298 738.279 668.485C740.435 666.689 744.868 662.543 745.361 660.326C745.823 664.944 746.254 675.536 744.283 680.954C748.337 675.72 754.012 659.587 744.283 636.927C740.896 631.487 731.106 618.423 719.036 609.679Z" stroke="black"/>
<path d="M555.61 742.425C508.318 716.629 467.832 659.225 453.501 633.747C472.609 678.174 506.447 722.321 520.977 738.842C551.55 777.058 607.759 791.787 632.043 794.375C667.393 804.884 718.427 771.286 739.526 753.173C707.042 778.491 663.89 779.248 646.374 776.461C612.457 772.162 571.733 751.979 555.61 742.425Z" fill="#E2AD8B"/>
<path d="M335.189 805.542L295.631 819.782C292.467 832.704 292.467 863.454 317.784 883.074L344.683 904.435C392.679 944.784 527.279 1012.82 681.711 962.189C723.906 944.256 795.636 898.581 745.003 859.34L759.909 865.614L773.504 874.03L801.988 891.833L827.235 909.635L879.671 939.09C884.85 942.327 899.157 950.549 914.953 957.54C930.748 964.532 939.876 967.79 942.466 968.545L975.805 982.787L1002.67 997.029L1047.66 1030.69L1075.82 1053.35L1089.42 1066.3L1093.55 1104.91L46.4042 1096.78L49.793 868.371L71.3751 856.66L103.39 849.254L154.518 843.042L179.365 841.131L219.264 834.68L245.067 827.99L259.402 819.782L274.215 821.062L294.045 811.983L311.008 805.542H335.189Z" fill="black" stroke="black"/>
<path d="M168.5 842L133 846.5L94 851L81 854.5C72.6 856.1 54.1667 864.833 46 869V1089.5H1087.5V1064.5L1067.5 1045.5L1036.5 1022L1008.5 1002.5C1003.7 996.9 981.5 985.5 971 980.5L902.5 951.5L837 916L816.5 903.5L803 891.5C802.167 891.5 799.5 890.7 795.5 887.5C791.5 884.3 788.167 883.5 787 883.5L768.5 871C759.3 864.6 741 857.667 733 855L728.5 851C730.1 824.2 735.167 800.167 737.5 791.5C743.5 766.7 766 742.833 776.5 734L788.5 723.5L802.5 710L820 690C827 696.5 830 695.5 835.5 696.5C841 697.5 848.5 692.5 850 688C851.2 684.4 857.167 679.5 860 677.5C868.8 673.5 892.667 642.167 903.5 627C909.1 621.8 921.167 598.833 926.5 588C933.5 586.5 976 532.5 988.5 486.5C998.5 449.7 986.333 410.5 979 395.5C996.6 291.1 940.333 240 910 227.5C892.8 206.3 859.167 188 844.5 181.5C822.1 171.5 779.167 162.333 760.5 159C743.3 155.8 722 156.667 713.5 157.5L663.5 163.5C621.5 170.3 583 187.667 569 195.5C542 210.5 521.5 235 518 239.5C515.2 243.1 509.833 251.333 507.5 255L512.5 249.5V256C507.3 260.8 501.333 274 499 280L503.5 274.5L495.5 293.5L477.5 333.5C464.5 333.5 462 335.5 452 340.5C444 344.5 434 363.833 430 373C428 377.833 422.8 390.9 418 404.5C413.2 418.1 413 432.5 413.5 438C416.333 452.167 422.4 482.6 424 491C426 501.5 439 503.5 446 506.5C451.6 508.9 455.333 505.5 456.5 503.5L451.5 542.5C451 548.833 449.6 563.8 448 573C446.4 582.2 447.333 597.833 448 604.5L443.5 625L431.5 680L429 694.5L424.5 716L409.5 756C407.833 761 403.3 773.6 398.5 784C393.7 794.4 387.167 798 384.5 798.5L351 805H315C309 805 298.833 809.333 294.5 811.5L271.5 821H261C257 821 247.333 826.333 243 829L224 834.5H215.5L178 842H168.5Z" stroke="black" stroke-width="5"/>
</g>
<rect x="57.5" y="57.5" width="1024" height="1024" rx="64" stroke="black" stroke-width="15" shape-rendering="crispEdges"/>
</g>
<defs>
<filter id="filter0_d_1_3" x="0" y="0" width="1139" height="1139" filterUnits="userSpaceOnUse" color-interpolation-filters="sRGB">
<feFlood flood-opacity="0" result="BackgroundImageFix"/>
<feColorMatrix in="SourceAlpha" type="matrix" values="0 0 0 0 0 0 0 0 0 0 0 0 0 0 0 0 0 0 127 0" result="hardAlpha"/>
<feOffset/>
<feGaussianBlur stdDeviation="25"/>
<feComposite in2="hardAlpha" operator="out"/>
<feColorMatrix type="matrix" values="0 0 0 0 1 0 0 0 0 1 0 0 0 0 1 0 0 0 0.75 0"/>
<feBlend mode="normal" in2="BackgroundImageFix" result="effect1_dropShadow_1_3"/>
<feBlend mode="normal" in="SourceGraphic" in2="effect1_dropShadow_1_3" result="shape"/>
</filter>
<filter id="filter1_f_1_3" x="412.878" y="478.516" width="522.892" height="392.441" filterUnits="userSpaceOnUse" color-interpolation-filters="sRGB">
<feFlood flood-opacity="0" result="BackgroundImageFix"/>
<feBlend mode="normal" in="SourceGraphic" in2="BackgroundImageFix" result="shape"/>
<feGaussianBlur stdDeviation="5" result="effect1_foregroundBlur_1_3"/>
</filter>
<clipPath id="clip0_1_3">
<rect x="57.5" y="57.5" width="1024" height="1024" rx="64" fill="white"/>
</clipPath>
</defs>
</svg>
